<?xml version="1.0" encoding="UTF-8"?>
<svg id="Layer_1" xmlns="http://www.w3.org/2000/svg" version="1.1" viewBox="0 0 999.56 380.44">
  <!-- Generator: Adobe Illustrator 30.0.0, SVG Export Plug-In . SVG Version: 2.1.1 Build 123)  -->
  <g>
    <g>
      <path d="M365.13,315.57c-.15-3.21-.33-7.09-.3-10.45h-.11c-.81,3.03-1.85,6.39-2.96,9.53l-3.63,10.78h-3.52l-3.33-10.63c-.97-3.17-1.85-6.57-2.52-9.67h-.08c-.11,3.25-.26,7.2-.44,10.6l-.55,10.01h-4.26l1.67-24.89h6l3.26,10.01c.89,2.92,1.67,5.87,2.3,8.64h.11c.66-2.7,1.52-5.76,2.48-8.68l3.44-9.97h5.93l1.44,24.89h-4.44l-.48-10.15v-.02h-.01Z" fill="#00abe8"/>
      <path d="M391.09,325.72l-.3-1.99h-.11c-1.11,1.4-3,2.4-5.33,2.4-3.63,0-5.67-2.62-5.67-5.35,0-4.54,4.04-6.83,10.7-6.79v-.3c0-1.18-.48-3.14-3.66-3.14-1.78,0-3.63.55-4.85,1.33l-.89-2.95c1.33-.81,3.67-1.59,6.52-1.59,5.78,0,7.45,3.65,7.45,7.57v6.5c0,1.62.07,3.21.26,4.32h-4.12ZM390.5,316.93c-3.22-.07-6.29.63-6.29,3.36,0,1.77,1.15,2.59,2.6,2.59,1.81,0,3.15-1.18,3.55-2.47.11-.33.15-.7.15-1v-2.47h0Z" fill="#00abe8"/>
      <path d="M410.6,315.64h.08c.44-.7.96-1.48,1.44-2.11l4.37-5.8h5.48l-6.66,7.35,7.63,10.63h-5.59l-5.18-7.94-1.55,1.81v6.13h-4.55v-26.21h4.55v16.14h-.02Z" fill="#00abe8"/>
      <path d="M434.16,318c.11,3.25,2.67,4.65,5.55,4.65,2.11,0,3.63-.29,5-.81l.67,3.14c-1.55.63-3.7,1.11-6.29,1.11-5.85,0-9.29-3.58-9.29-9.08,0-4.99,3.03-9.67,8.81-9.67s7.78,4.8,7.78,8.75c0,.85-.08,1.51-.15,1.92h-12.08ZM442.08,314.83c.04-1.66-.7-4.39-3.74-4.39-2.82,0-4,2.55-4.19,4.39h7.93Z" fill="#00abe8"/>
      <path d="M481.7,300.83v24.89h-4.55v-24.89h4.55Z" fill="#00abe8"/>
      <path d="M493.25,313.09c0-2.07-.04-3.8-.15-5.35h4l.22,2.7h.11c.78-1.4,2.74-3.1,5.74-3.1,3.15,0,6.4,2.03,6.4,7.72v10.67h-4.55v-10.15c0-2.59-.96-4.54-3.44-4.54-1.82,0-3.07,1.29-3.56,2.66-.15.41-.19.96-.19,1.48v10.56h-4.59v-12.65h.01Z" fill="#00abe8"/>
      <path d="M525.76,302.61v5.13h4.33v3.4h-4.33v7.94c0,2.18.59,3.32,2.33,3.32.78,0,1.37-.11,1.78-.22l.08,3.47c-.66.26-1.85.44-3.3.44-1.67,0-3.07-.55-3.92-1.48-.96-1.03-1.41-2.66-1.41-5.02v-8.46h-2.59v-3.4h2.59v-4.06l4.44-1.07h0Z" fill="#00abe8"/>
      <path d="M542.83,318c.11,3.25,2.67,4.65,5.55,4.65,2.11,0,3.63-.29,5-.81l.67,3.14c-1.55.63-3.7,1.11-6.29,1.11-5.85,0-9.29-3.58-9.29-9.08,0-4.99,3.03-9.67,8.81-9.67s7.78,4.8,7.78,8.75c0,.85-.08,1.51-.15,1.92h-12.08ZM550.75,314.83c.04-1.66-.7-4.39-3.74-4.39-2.82,0-4,2.55-4.19,4.39h7.93Z" fill="#00abe8"/>
      <path d="M565.01,299.5h4.59v26.21h-4.59v-26.21Z" fill="#00abe8"/>
      <path d="M580.82,299.5h4.59v26.21h-4.59v-26.21Z" fill="#00abe8"/>
      <path d="M601.48,302.72c0,1.37-1,2.44-2.59,2.44s-2.52-1.07-2.52-2.44,1.04-2.47,2.56-2.47,2.52,1.07,2.56,2.47h0ZM596.63,325.72v-17.98h4.59v17.98h-4.59Z" fill="#00abe8"/>
      <path d="M628.88,307.74c-.08,1.22-.15,2.7-.15,5.17v10.19c0,3.76-.78,6.46-2.67,8.16-1.89,1.66-4.48,2.18-6.96,2.18-2.3,0-4.74-.48-6.29-1.44l1-3.43c1.15.66,3.07,1.37,5.26,1.37,2.96,0,5.19-1.55,5.19-5.43v-1.55h-.08c-1.04,1.59-2.89,2.66-5.26,2.66-4.48,0-7.66-3.69-7.66-8.79,0-5.91,3.85-9.49,8.18-9.49,2.74,0,4.37,1.33,5.22,2.81h.07l.19-2.4h3.96ZM624.18,314.94c0-.41-.04-.85-.15-1.22-.48-1.66-1.78-2.92-3.7-2.92-2.56,0-4.44,2.22-4.44,5.87,0,3.06,1.55,5.54,4.4,5.54,1.71,0,3.18-1.11,3.7-2.73.11-.48.19-1.11.19-1.62v-2.92h0Z" fill="#00abe8"/>
      <path d="M643.13,318c.11,3.25,2.67,4.65,5.55,4.65,2.11,0,3.63-.29,5-.81l.67,3.14c-1.55.63-3.7,1.11-6.29,1.11-5.85,0-9.29-3.58-9.29-9.08,0-4.99,3.03-9.67,8.81-9.67s7.78,4.8,7.78,8.75c0,.85-.08,1.51-.15,1.92h-12.08ZM651.06,314.83c.04-1.66-.7-4.39-3.74-4.39-2.82,0-4,2.55-4.19,4.39h7.93Z" fill="#00abe8"/>
      <path d="M665.31,313.09c0-2.07-.04-3.8-.15-5.35h4l.22,2.7h.11c.78-1.4,2.74-3.1,5.74-3.1,3.15,0,6.4,2.03,6.4,7.72v10.67h-4.55v-10.15c0-2.59-.96-4.54-3.44-4.54-1.82,0-3.07,1.29-3.56,2.66-.15.41-.19.96-.19,1.48v10.56h-4.59v-12.65h.01Z" fill="#00abe8"/>
      <path d="M697.82,302.61v5.13h4.33v3.4h-4.33v7.94c0,2.18.59,3.32,2.33,3.32.78,0,1.37-.11,1.78-.22l.08,3.47c-.66.26-1.85.44-3.3.44-1.67,0-3.07-.55-3.92-1.48-.96-1.03-1.41-2.66-1.41-5.02v-8.46h-2.59v-3.4h2.59v-4.06l4.44-1.07h0Z" fill="#00abe8"/>
      <path d="M750.58,324.98c-1.07.55-3.44,1.11-6.44,1.11-7.92,0-12.74-4.95-12.74-12.52,0-8.2,5.7-13.14,13.33-13.14,3,0,5.15.63,6.07,1.11l-1,3.62c-1.19-.52-2.82-.96-4.89-.96-5.07,0-8.74,3.17-8.74,9.15,0,5.47,3.22,8.97,8.7,8.97,1.85,0,3.77-.37,4.96-.92l.74,3.58h0Z" fill="#00abe8"/>
      <path d="M777.13,316.56c0,6.61-4.66,9.56-9.26,9.56-5.11,0-9.03-3.51-9.03-9.27s3.88-9.52,9.33-9.52,8.96,3.77,8.96,9.23h0ZM763.54,316.75c0,3.47,1.71,6.09,4.48,6.09,2.59,0,4.4-2.55,4.4-6.16,0-2.81-1.26-6.02-4.37-6.02s-4.52,3.1-4.52,6.09h.01Z" fill="#00abe8"/>
      <path d="M787.17,313.09c0-2.07-.04-3.8-.15-5.35h4l.22,2.7h.11c.78-1.4,2.74-3.1,5.74-3.1,3.15,0,6.4,2.03,6.4,7.72v10.67h-4.55v-10.15c0-2.59-.96-4.54-3.44-4.54-1.82,0-3.07,1.29-3.56,2.66-.15.41-.19.96-.19,1.48v10.56h-4.59v-12.65h.01Z" fill="#00abe8"/>
      <path d="M814.64,313.09c0-2.07-.04-3.8-.15-5.35h4l.22,2.7h.11c.78-1.4,2.74-3.1,5.74-3.1,3.15,0,6.4,2.03,6.4,7.72v10.67h-4.55v-10.15c0-2.59-.96-4.54-3.44-4.54-1.82,0-3.07,1.29-3.56,2.66-.15.41-.19.96-.19,1.48v10.56h-4.59v-12.65h.01Z" fill="#00abe8"/>
      <path d="M845.34,318c.11,3.25,2.67,4.65,5.55,4.65,2.11,0,3.63-.29,5-.81l.67,3.14c-1.55.63-3.7,1.11-6.29,1.11-5.85,0-9.29-3.58-9.29-9.08,0-4.99,3.03-9.67,8.81-9.67s7.78,4.8,7.78,8.75c0,.85-.08,1.51-.15,1.92h-12.08ZM853.26,314.83c.04-1.66-.7-4.39-3.74-4.39-2.82,0-4,2.55-4.19,4.39h7.93Z" fill="#00abe8"/>
      <path d="M880.77,325.16c-.96.44-2.85.92-5.11.92-5.63,0-9.29-3.58-9.29-9.16s3.7-9.6,10.03-9.6c1.67,0,3.37.37,4.41.85l-.81,3.4c-.74-.33-1.82-.7-3.45-.7-3.48,0-5.55,2.55-5.51,5.83,0,3.69,2.41,5.8,5.51,5.8,1.59,0,2.71-.33,3.59-.7l.63,3.36h0Z" fill="#00abe8"/>
      <path d="M896.21,302.61v5.13h4.33v3.4h-4.33v7.94c0,2.18.59,3.32,2.33,3.32.78,0,1.37-.11,1.78-.22l.08,3.47c-.66.26-1.85.44-3.3.44-1.67,0-3.07-.55-3.92-1.48-.96-1.03-1.41-2.66-1.41-5.02v-8.46h-2.59v-3.4h2.59v-4.06l4.44-1.07h0Z" fill="#00abe8"/>
      <path d="M915.13,302.72c0,1.37-1,2.44-2.59,2.44s-2.52-1.07-2.52-2.44,1.04-2.47,2.56-2.47,2.52,1.07,2.56,2.47h0ZM910.28,325.72v-17.98h4.59v17.98h-4.59Z" fill="#00abe8"/>
      <path d="M943.2,316.56c0,6.61-4.66,9.56-9.26,9.56-5.11,0-9.03-3.51-9.03-9.27s3.88-9.52,9.33-9.52,8.96,3.77,8.96,9.23h0ZM929.61,316.75c0,3.47,1.71,6.09,4.48,6.09,2.59,0,4.4-2.55,4.4-6.16,0-2.81-1.26-6.02-4.37-6.02s-4.52,3.1-4.52,6.09h.01Z" fill="#00abe8"/>
      <path d="M953.24,313.09c0-2.07-.04-3.8-.15-5.35h4l.22,2.7h.11c.78-1.4,2.74-3.1,5.74-3.1,3.15,0,6.4,2.03,6.4,7.72v10.67h-4.55v-10.15c0-2.59-.96-4.54-3.44-4.54-1.82,0-3.07,1.29-3.56,2.66-.15.41-.19.96-.19,1.48v10.56h-4.59v-12.65h.01Z" fill="#00abe8"/>
      <path d="M980.49,321.55c1.04.63,3,1.29,4.62,1.29,2,0,2.89-.81,2.89-1.99s-.74-1.85-2.96-2.62c-3.52-1.22-5-3.14-4.96-5.24,0-3.17,2.63-5.65,6.81-5.65,2,0,3.74.52,4.77,1.07l-.89,3.21c-.78-.44-2.22-1.03-3.81-1.03s-2.52.77-2.52,1.88.85,1.7,3.15,2.51c3.26,1.18,4.77,2.84,4.81,5.5,0,3.25-2.56,5.61-7.33,5.61-2.18,0-4.15-.52-5.48-1.26l.89-3.28h.01Z" fill="#00abe8"/>
    </g>
    <g>
      <g>
        <path d="M363.03,129.86v46.92c3.65-3.58,7.59-6.26,11.83-8.05,4.24-1.79,8.77-2.69,13.6-2.69,10.5,0,19.43,3.9,26.77,11.68,7.35,7.79,11.02,17.77,11.02,29.96s-3.8,21.58-11.39,29.49c-7.59,7.91-16.59,11.86-26.99,11.86-4.64,0-8.95-.81-12.94-2.43s-7.96-4.27-11.9-7.94v8.34h-20.04v-117.14h20.04ZM384.26,184.32c-6.36,0-11.64,2.13-15.83,6.38-4.19,4.26-6.29,9.82-6.29,16.69s2.09,12.68,6.29,17.01c4.19,4.33,9.46,6.49,15.83,6.49s11.35-2.2,15.56-6.6c4.22-4.4,6.32-10.01,6.32-16.83s-2.07-12.32-6.21-16.65c-4.14-4.33-9.37-6.49-15.67-6.49Z" fill="#fff"/>
        <path d="M465.54,131.71c3.54,0,6.57,1.26,9.1,3.77,2.53,2.51,3.8,5.56,3.8,9.14s-1.25,6.54-3.76,9.03-5.5,3.74-9,3.74-6.65-1.27-9.18-3.81-3.8-5.62-3.8-9.25,1.25-6.45,3.76-8.93c2.51-2.46,5.53-3.7,9.07-3.7h0ZM455.44,168.06h20.19v78.93h-20.19v-78.93Z" fill="#fff"/>
        <path d="M546.45,166.03c7.59,0,14.73,1.86,21.41,5.59,6.68,3.72,11.9,8.78,15.64,15.16,3.75,6.38,5.62,13.28,5.62,20.67s-1.89,14.42-5.66,20.89c-3.77,6.48-8.91,11.55-15.42,15.2s-13.68,5.48-21.52,5.48c-11.53,0-21.38-4.03-29.54-12.08-8.16-8.05-12.24-17.83-12.24-29.34,0-12.34,4.61-22.61,13.83-30.83,8.08-7.16,17.38-10.74,27.88-10.74h0ZM546.79,184.68c-6.27,0-11.5,2.14-15.67,6.42s-6.26,9.76-6.26,16.43,2.06,12.43,6.18,16.69c4.12,4.26,9.35,6.38,15.67,6.38s11.58-2.15,15.78-6.45c4.19-4.3,6.29-9.84,6.29-16.62s-2.06-12.27-6.18-16.5c-4.13-4.23-9.4-6.35-15.81-6.35h0Z" fill="#fff"/>
        <path d="M623.92,140.28h21.94c12.01,0,20.57,1.05,25.67,3.15,5.1,2.1,9.2,5.6,12.3,10.48,3.1,4.88,4.65,10.66,4.65,17.34,0,7.01-1.72,12.88-5.14,17.59-3.43,4.71-8.59,8.28-15.49,10.7l25.77,47.45h-22.63l-24.46-45.2h-1.9v45.2h-20.71v-106.72h0ZM644.63,181.99h6.49c6.58,0,11.12-.85,13.6-2.55s3.72-4.51,3.72-8.44c0-2.33-.62-4.36-1.84-6.08-1.23-1.72-2.87-2.96-4.94-3.71-2.06-.75-5.85-1.13-11.35-1.13h-5.68v21.91h0Z" fill="#fff"/>
        <path d="M785.18,154.79l-15.33,13.27c-5.39-7.35-10.87-11.03-16.45-11.03-2.72,0-4.94.71-6.67,2.14s-2.59,3.04-2.59,4.83.62,3.48,1.85,5.08c1.68,2.13,6.74,6.7,15.19,13.71,7.9,6.48,12.69,10.57,14.37,12.26,4.2,4.16,7.17,8.14,8.93,11.94,1.75,3.79,2.63,7.94,2.63,12.44,0,8.75-3.09,15.99-9.26,21.69-6.17,5.71-14.21,8.56-24.13,8.56-7.75,0-14.5-1.86-20.25-5.59-5.75-3.72-10.67-9.58-14.77-17.56l17.4-10.3c5.23,9.43,11.25,14.14,18.07,14.14,3.55,0,6.54-1.01,8.96-3.04,2.42-2.03,3.63-4.38,3.63-7.04,0-2.42-.91-4.84-2.74-7.25-1.82-2.42-5.85-6.12-12.07-11.1-11.85-9.48-19.51-16.79-22.96-21.94-3.46-5.15-5.19-10.29-5.19-15.42,0-7.4,2.87-13.75,8.62-19.04,5.75-5.29,12.84-7.94,21.29-7.94,5.43,0,10.6,1.24,15.51,3.7,4.91,2.47,10.23,6.96,15.96,13.5h0Z" fill="#fff"/>
        <path d="M810.26,140.28h21.29l27.37,75.81,27.77-75.81h21.26l-39.2,106.72h-19.97l-38.53-106.72h.01Z" fill="#fff"/>
        <path d="M933.11,140.28h21.96c11.88,0,20.45,1.08,25.7,3.23s9.39,5.64,12.42,10.45c3.03,4.81,4.55,10.58,4.55,17.3,0,7.45-1.99,13.64-5.95,18.57-3.97,4.93-9.35,8.37-16.16,10.3-3.99,1.11-11.27,1.67-21.81,1.67v45.2h-20.71v-106.72h0ZM953.82,181.99h6.58c5.18,0,8.77-.36,10.8-1.09,2.02-.73,3.61-1.93,4.77-3.61,1.16-1.67,1.74-3.7,1.74-6.08,0-4.13-1.62-7.14-4.88-9.03-2.36-1.41-6.75-2.11-13.16-2.11h-5.84v21.91h-.01Z" fill="#fff"/>
      </g>
      <polygon points="343 129.48 363.13 120.33 362.97 149.02 343 129.48" fill="#00abe8"/>
    </g>
  </g>
  <g>
    <polygon points="95.88 177.79 273.16 191.16 262.89 281.2 173.23 376.81 90.57 315.55 76.09 240.36 95.88 177.79" fill="none" stroke="#00abe8" stroke-miterlimit="10" stroke-width="3.11"/>
    <g>
      <line x1="76.12" y1="240.61" x2="168.21" y2="239.4" fill="none" stroke="#00abe8" stroke-miterlimit="10" stroke-width="3.11"/>
      <line x1="168.21" y1="239.4" x2="262.78" y2="281.2" fill="none" stroke="#00abe8" stroke-miterlimit="10" stroke-width="3.11"/>
      <line x1="273.03" y1="191.28" x2="168.21" y2="239.4" fill="none" stroke="#00abe8" stroke-miterlimit="10" stroke-width="3.11"/>
      <line x1="95.9" y1="177.79" x2="168.21" y2="239.4" fill="none" stroke="#00abe8" stroke-miterlimit="10" stroke-width="3.11"/>
      <polyline points="50.87 91.95 134.67 130.4 95.93 177.76" fill="none" stroke="#00abe8" stroke-miterlimit="10" stroke-width="3.11"/>
      <line x1="168.21" y1="239.4" x2="173.24" y2="376.63" fill="none" stroke="#00abe8" stroke-miterlimit="10" stroke-width="3.11"/>
      <line x1="173.24" y1="376.59" x2="76.08" y2="240.57" fill="none" stroke="#00abe8" stroke-miterlimit="10" stroke-width="3.11"/>
      <line x1="50.87" y1="91.95" x2="95.83" y2="177.75" fill="none" stroke="#00abe8" stroke-miterlimit="10" stroke-width="3.11"/>
      <polyline points="50.87 91.95 84.62 3.89 2.51 64.42 50.87 91.95" fill="none" stroke="#00abe8" stroke-miterlimit="10" stroke-width="3.11"/>
      <polyline points="50.87 91.95 22.79 157.46 76.08 240.57" fill="none" stroke="#00abe8" stroke-miterlimit="10" stroke-width="3.11"/>
      <line x1="50.87" y1="91.95" x2="76.08" y2="240.65" fill="none" stroke="#00abe8" stroke-miterlimit="10" stroke-width="3.11"/>
    </g>
  </g>
</svg>