<svg width="273" height="377" viewBox="0 0 273 377" fill="none" xmlns="http://www.w3.org/2000/svg">
<path d="M272.51 188.86L261.65 279.73L166.63 238.29L272.51 188.86Z" fill="#231F20"/>
<path d="M93.8502 175.91L74.4902 240.19L166.63 238.29L93.8502 175.91Z" fill="#00ABE8"/>
<path d="M171.7 376.96L166.63 238.29L261.65 279.73L171.7 376.96Z" fill="#00ABE8"/>
<path d="M166.63 238.29L272.51 188.86L93.8501 175.91L166.63 238.29Z" fill="#3B59A0"/>
<path d="M132.91 128L93.8499 175.91L48.6399 89.09L132.91 128Z" fill="#3B59A0"/>
<path d="M74.4899 240.19L93.8499 175.91L48.6399 89.09L74.4899 240.19L171.7 376.96L89.2099 315.79L74.4899 240.19L20.3999 155.39L48.6399 89.09L74.4899 240.19Z" fill="#231F20"/>
<path d="M82.57 0L48.64 89.09L0 61.24L82.57 0Z" fill="#231F20"/>
<path d="M48.6399 89.09L74.4899 240.19L20.3999 155.39L48.6399 89.09Z" fill="#00ABE8"/>
</svg>
