<?xml version="1.0" encoding="UTF-8"?>
<svg id="Layer_1" xmlns="http://www.w3.org/2000/svg" version="1.1" viewBox="0 0 1000.01 376.96">
  <!-- Generator: Adobe Illustrator 30.0.0, SVG Export Plug-In . SVG Version: 2.1.1 Build 123)  -->
  <g>
    <polygon points="272.51 188.86 261.65 279.73 166.63 238.29 272.51 188.86" fill="#231f20"/>
    <polygon points="93.85 175.91 74.49 240.19 166.63 238.29 93.85 175.91" fill="#00abe8"/>
    <polygon points="171.7 376.96 166.63 238.29 261.65 279.73 171.7 376.96" fill="#00abe8"/>
    <polyline points="166.63 238.29 272.51 188.86 93.85 175.91 166.63 238.29" fill="#3b59a0"/>
    <polygon points="132.91 128 93.85 175.91 48.64 89.09 132.91 128" fill="#3b59a0"/>
    <polyline points="74.49 240.19 93.85 175.91 48.64 89.09 74.49 240.19 171.7 376.96 89.21 315.79 74.49 240.19 20.4 155.39 48.64 89.09 74.49 240.19 74.49 240.19 74.49 240.19" fill="#231f20"/>
    <polygon points="82.57 0 48.64 89.09 0 61.24 82.57 0" fill="#231f20"/>
    <polyline points="48.64 89.09 74.49 240.19 20.4 155.39 48.64 89.09" fill="#00abe8"/>
  </g>
  <g>
    <g>
      <path d="M364.21,314.98c-.15-3.25-.34-7.17-.3-10.57h-.11c-.82,3.06-1.87,6.46-3,9.64l-3.67,10.9h-3.56l-3.37-10.76c-.98-3.21-1.87-6.65-2.55-9.79h-.08c-.11,3.29-.26,7.28-.45,10.72l-.56,10.12h-4.31l1.69-25.17h6.07l3.29,10.12c.9,2.95,1.69,5.94,2.33,8.74h.11c.67-2.73,1.54-5.83,2.51-8.78l3.48-10.08h6l1.46,25.17h-4.49l-.49-10.27h0Z" fill="#00abe8"/>
      <path d="M390.46,325.25l-.3-2.02h-.11c-1.12,1.42-3.03,2.43-5.39,2.43-3.67,0-5.73-2.65-5.73-5.42,0-4.59,4.09-6.91,10.83-6.87v-.3c0-1.2-.48-3.17-3.71-3.17-1.8,0-3.67.56-4.91,1.34l-.9-2.99c1.35-.82,3.71-1.61,6.59-1.61,5.84,0,7.53,3.7,7.53,7.66v6.57c0,1.64.07,3.25.26,4.37h-4.16ZM389.86,316.36c-3.26-.08-6.37.63-6.37,3.4,0,1.79,1.16,2.61,2.63,2.61,1.83,0,3.18-1.2,3.59-2.5.11-.34.15-.71.15-1.01v-2.5h0Z" fill="#00abe8"/>
      <path d="M410.21,315.05h.08c.45-.71.97-1.5,1.46-2.13l4.42-5.86h5.54l-6.74,7.43,7.72,10.76h-5.66l-5.24-8.03-1.57,1.83v6.2h-4.61v-26.52h4.61v16.32h-.01Z" fill="#00abe8"/>
      <path d="M434.03,317.44c.11,3.28,2.7,4.7,5.62,4.7,2.13,0,3.67-.3,5.05-.82l.68,3.17c-1.57.64-3.75,1.12-6.37,1.12-5.92,0-9.4-3.62-9.4-9.19,0-5.04,3.07-9.79,8.91-9.79s7.87,4.85,7.87,8.85c0,.86-.08,1.53-.15,1.94h-12.21v.02ZM442.05,314.23c.04-1.68-.71-4.44-3.78-4.44-2.85,0-4.05,2.58-4.23,4.44h8.02,0Z" fill="#00abe8"/>
      <path d="M482.12,300.08v25.17h-4.61v-25.17h4.61Z" fill="#00abe8"/>
      <path d="M493.81,312.48c0-2.09-.04-3.85-.15-5.41h4.05l.22,2.73h.11c.79-1.42,2.77-3.14,5.81-3.14,3.19,0,6.48,2.05,6.48,7.8v10.79h-4.61v-10.27c0-2.61-.97-4.59-3.48-4.59-1.84,0-3.11,1.31-3.6,2.69-.15.41-.19.97-.19,1.5v10.68h-4.64v-12.77h0Z" fill="#00abe8"/>
      <path d="M526.7,301.87v5.19h4.38v3.43h-4.38v8.03c0,2.2.6,3.36,2.36,3.36.79,0,1.38-.11,1.8-.22l.08,3.51c-.67.26-1.87.45-3.33.45-1.68,0-3.11-.56-3.97-1.49-.97-1.05-1.42-2.69-1.42-5.08v-8.55h-2.62v-3.43h2.62v-4.11l4.49-1.08h-.01Z" fill="#00abe8"/>
      <path d="M543.97,317.44c.11,3.28,2.7,4.7,5.62,4.7,2.13,0,3.67-.3,5.05-.82l.68,3.17c-1.57.64-3.75,1.12-6.37,1.12-5.92,0-9.4-3.62-9.4-9.19,0-5.04,3.07-9.79,8.91-9.79s7.87,4.85,7.87,8.85c0,.86-.08,1.53-.15,1.94h-12.21v.02ZM551.99,314.23c.04-1.68-.71-4.44-3.78-4.44-2.85,0-4.05,2.58-4.23,4.44h8.02-.01Z" fill="#00abe8"/>
      <path d="M566.41,298.73h4.64v26.52h-4.64v-26.52Z" fill="#00abe8"/>
      <path d="M582.4,298.73h4.64v26.52h-4.64v-26.52Z" fill="#00abe8"/>
      <path d="M603.3,301.98c0,1.38-1.01,2.47-2.62,2.47s-2.55-1.08-2.55-2.47,1.05-2.5,2.59-2.5,2.55,1.08,2.59,2.5h-.01ZM598.4,325.25v-18.19h4.64v18.19h-4.64Z" fill="#00abe8"/>
      <path d="M631.02,307.06c-.08,1.23-.15,2.73-.15,5.23v10.31c0,3.81-.78,6.53-2.7,8.25-1.91,1.68-4.53,2.2-7.04,2.2-2.33,0-4.79-.49-6.37-1.46l1.01-3.47c1.16.67,3.11,1.38,5.32,1.38,3,0,5.25-1.57,5.25-5.49v-1.57h-.08c-1.05,1.61-2.92,2.69-5.32,2.69-4.53,0-7.75-3.73-7.75-8.89,0-5.98,3.89-9.6,8.28-9.6,2.77,0,4.42,1.34,5.28,2.84h.07l.19-2.43h4.01,0ZM626.26,314.34c0-.41-.04-.86-.15-1.23-.49-1.68-1.8-2.95-3.75-2.95-2.59,0-4.49,2.24-4.49,5.94,0,3.1,1.57,5.6,4.45,5.6,1.72,0,3.22-1.12,3.75-2.76.11-.49.19-1.12.19-1.64v-2.95h0Z" fill="#00abe8"/>
      <path d="M645.44,317.44c.11,3.28,2.7,4.7,5.62,4.7,2.13,0,3.67-.3,5.05-.82l.68,3.17c-1.57.64-3.75,1.12-6.37,1.12-5.92,0-9.4-3.62-9.4-9.19,0-5.04,3.07-9.79,8.91-9.79s7.87,4.85,7.87,8.85c0,.86-.08,1.53-.15,1.94h-12.21v.02ZM653.46,314.23c.04-1.68-.71-4.44-3.78-4.44-2.85,0-4.05,2.58-4.23,4.44h8.02-.01Z" fill="#00abe8"/>
      <path d="M667.88,312.48c0-2.09-.04-3.85-.15-5.41h4.05l.22,2.73h.11c.79-1.42,2.77-3.14,5.81-3.14,3.19,0,6.48,2.05,6.48,7.8v10.79h-4.61v-10.27c0-2.61-.97-4.59-3.48-4.59-1.84,0-3.11,1.31-3.6,2.69-.15.41-.19.97-.19,1.5v10.68h-4.64v-12.77h0Z" fill="#00abe8"/>
      <path d="M700.77,301.87v5.19h4.38v3.43h-4.38v8.03c0,2.2.6,3.36,2.36,3.36.79,0,1.38-.11,1.8-.22l.08,3.51c-.67.26-1.87.45-3.33.45-1.68,0-3.11-.56-3.97-1.49-.97-1.05-1.42-2.69-1.42-5.08v-8.55h-2.62v-3.43h2.62v-4.11l4.49-1.08h-.01Z" fill="#00abe8"/>
      <path d="M754.14,324.5c-1.08.56-3.48,1.12-6.52,1.12-8.02,0-12.89-5-12.89-12.66,0-8.29,5.77-13.29,13.48-13.29,3.03,0,5.21.63,6.14,1.12l-1.01,3.66c-1.2-.52-2.85-.97-4.95-.97-5.13,0-8.84,3.21-8.84,9.26,0,5.53,3.26,9.08,8.8,9.08,1.87,0,3.82-.37,5.02-.93l.75,3.62h.02Z" fill="#00abe8"/>
      <path d="M781,315.99c0,6.69-4.72,9.67-9.36,9.67-5.17,0-9.14-3.55-9.14-9.38s3.93-9.63,9.44-9.63,9.06,3.81,9.06,9.34ZM767.26,316.17c0,3.51,1.72,6.16,4.53,6.16,2.62,0,4.45-2.58,4.45-6.24,0-2.84-1.27-6.09-4.42-6.09s-4.57,3.14-4.57,6.16h0Z" fill="#00abe8"/>
      <path d="M791.16,312.48c0-2.09-.04-3.85-.15-5.41h4.05l.22,2.73h.11c.79-1.42,2.77-3.14,5.81-3.14,3.19,0,6.48,2.05,6.48,7.8v10.79h-4.61v-10.27c0-2.61-.97-4.59-3.48-4.59-1.84,0-3.11,1.31-3.6,2.69-.15.41-.19.97-.19,1.5v10.68h-4.64v-12.77h0Z" fill="#00abe8"/>
      <path d="M818.95,312.48c0-2.09-.04-3.85-.15-5.41h4.05l.22,2.73h.11c.79-1.42,2.77-3.14,5.81-3.14,3.19,0,6.48,2.05,6.48,7.8v10.79h-4.61v-10.27c0-2.61-.97-4.59-3.48-4.59-1.84,0-3.11,1.31-3.6,2.69-.15.41-.19.97-.19,1.5v10.68h-4.64v-12.77h0Z" fill="#00abe8"/>
      <path d="M850,317.44c.11,3.28,2.7,4.7,5.62,4.7,2.13,0,3.67-.3,5.05-.82l.68,3.17c-1.57.64-3.75,1.12-6.37,1.12-5.92,0-9.4-3.62-9.4-9.19,0-5.04,3.07-9.79,8.91-9.79s7.87,4.85,7.87,8.85c0,.86-.08,1.53-.15,1.94h-12.21v.02ZM858.02,314.23c.04-1.68-.71-4.44-3.78-4.44-2.85,0-4.05,2.58-4.23,4.44h8.02-.01Z" fill="#00abe8"/>
      <path d="M885.85,324.69c-.97.45-2.88.93-5.17.93-5.7,0-9.4-3.62-9.4-9.26s3.75-9.71,10.15-9.71c1.68,0,3.41.37,4.46.86l-.82,3.44c-.75-.34-1.84-.71-3.49-.71-3.52,0-5.61,2.58-5.58,5.9,0,3.74,2.43,5.86,5.58,5.86,1.61,0,2.74-.34,3.63-.71l.64,3.4h0Z" fill="#00abe8"/>
      <path d="M901.47,301.87v5.19h4.38v3.43h-4.38v8.03c0,2.2.6,3.36,2.36,3.36.79,0,1.38-.11,1.8-.22l.08,3.51c-.67.26-1.87.45-3.33.45-1.68,0-3.11-.56-3.97-1.49-.97-1.05-1.42-2.69-1.42-5.08v-8.55h-2.62v-3.43h2.62v-4.11l4.49-1.08h-.01Z" fill="#00abe8"/>
      <path d="M920.61,301.98c0,1.38-1.01,2.47-2.62,2.47s-2.55-1.08-2.55-2.47,1.05-2.5,2.59-2.5,2.55,1.08,2.59,2.5h-.01ZM915.71,325.25v-18.19h4.64v18.19h-4.64Z" fill="#00abe8"/>
      <path d="M949,315.99c0,6.69-4.72,9.67-9.36,9.67-5.17,0-9.14-3.55-9.14-9.38s3.93-9.63,9.44-9.63,9.06,3.81,9.06,9.34ZM935.26,316.17c0,3.51,1.72,6.16,4.53,6.16,2.62,0,4.45-2.58,4.45-6.24,0-2.84-1.27-6.09-4.42-6.09s-4.57,3.14-4.57,6.16h0Z" fill="#00abe8"/>
      <path d="M959.16,312.48c0-2.09-.04-3.85-.15-5.41h4.05l.22,2.73h.11c.79-1.42,2.77-3.14,5.81-3.14,3.19,0,6.48,2.05,6.48,7.8v10.79h-4.61v-10.27c0-2.61-.97-4.59-3.48-4.59-1.84,0-3.11,1.31-3.6,2.69-.15.41-.19.97-.19,1.5v10.68h-4.64v-12.77h0Z" fill="#00abe8"/>
      <path d="M986.73,321.03c1.05.63,3.03,1.31,4.68,1.31,2.03,0,2.93-.82,2.93-2.02s-.75-1.87-3-2.65c-3.56-1.23-5.06-3.17-5.02-5.3,0-3.21,2.66-5.71,6.89-5.71,2.02,0,3.78.52,4.83,1.08l-.9,3.25c-.78-.45-2.25-1.05-3.86-1.05s-2.55.78-2.55,1.9.86,1.72,3.19,2.54c3.29,1.2,4.83,2.88,4.87,5.56,0,3.29-2.59,5.68-7.42,5.68-2.21,0-4.19-.52-5.54-1.27l.9-3.32h0Z" fill="#00abe8"/>
    </g>
    <g>
      <g>
        <path d="M361.95,146.69v27.89c3.66-3.62,7.63-6.33,11.89-8.14,4.26-1.81,8.82-2.72,13.68-2.72,10.56,0,19.53,3.94,26.91,11.82,7.39,7.88,11.08,17.98,11.08,30.3s-3.82,21.83-11.45,29.83-16.68,12-27.13,12c-4.66,0-9-.82-13.01-2.46-4.01-1.64-8-4.32-11.97-8.03v8.44h-20.15v-118.49l20.15,19.56h0ZM383.29,182.22c-6.4,0-11.7,2.15-15.91,6.46-4.22,4.31-6.32,9.93-6.32,16.88s2.1,12.83,6.32,17.21c4.21,4.38,9.51,6.57,15.91,6.57s11.41-2.22,15.65-6.68c4.24-4.45,6.36-10.12,6.36-17.02s-2.08-12.46-6.25-16.84c-4.16-4.38-9.41-6.57-15.76-6.57h0Z" fill="#231f20"/>
        <path d="M465,129.01c3.56,0,6.61,1.27,9.15,3.82,2.54,2.54,3.82,5.63,3.82,9.25s-1.26,6.62-3.78,9.14c-2.52,2.52-5.53,3.78-9.04,3.78s-6.68-1.28-9.23-3.85c-2.54-2.57-3.82-5.69-3.82-9.36s1.26-6.53,3.78-9.03c2.52-2.49,5.56-3.74,9.12-3.74h0ZM454.85,165.78h20.3v79.84h-20.3v-79.84Z" fill="#231f20"/>
        <path d="M546.34,163.73c7.63,0,14.8,1.89,21.52,5.65,6.72,3.77,11.96,8.88,15.72,15.33,3.77,6.46,5.65,13.43,5.65,20.91s-1.9,14.58-5.69,21.13c-3.79,6.56-8.96,11.68-15.5,15.38-6.54,3.69-13.75,5.54-21.63,5.54-11.59,0-21.5-4.07-29.7-12.22-8.2-8.14-12.3-18.04-12.3-29.68,0-12.48,4.63-22.87,13.9-31.19,8.13-7.24,17.47-10.86,28.03-10.86h0ZM546.67,182.59c-6.3,0-11.56,2.16-15.75,6.49-4.2,4.33-6.29,9.87-6.29,16.62s2.07,12.57,6.22,16.88c4.14,4.31,9.4,6.46,15.75,6.46s11.64-2.18,15.86-6.53,6.33-9.96,6.33-16.81-2.07-12.41-6.22-16.69c-4.15-4.28-9.45-6.42-15.9-6.42h0Z" fill="#231f20"/>
        <path d="M624.22,137.68h22.05c12.08,0,20.68,1.06,25.8,3.19s9.25,5.66,12.37,10.6,4.68,10.79,4.68,17.54c0,7.09-1.72,13.02-5.17,17.8-3.44,4.77-8.63,8.38-15.57,10.82l25.9,47.99h-22.75l-24.59-45.71h-1.91v45.71h-20.82v-107.94h.01ZM645.03,179.87h6.52c6.62,0,11.18-.86,13.67-2.58,2.5-1.72,3.74-4.56,3.74-8.54,0-2.36-.62-4.41-1.85-6.15s-2.89-2.99-4.96-3.76c-2.07-.76-5.88-1.14-11.41-1.14h-5.71v22.16h0Z" fill="#231f20"/>
        <path d="M786.32,152.36l-15.42,13.43c-5.42-7.44-10.93-11.15-16.54-11.15-2.73,0-4.96.72-6.7,2.16-1.74,1.45-2.61,3.07-2.61,4.88s.62,3.52,1.86,5.14c1.69,2.15,6.78,6.78,15.27,13.87,7.94,6.56,12.76,10.69,14.45,12.4,4.22,4.21,7.21,8.23,8.97,12.07,1.76,3.84,2.64,8.03,2.64,12.58,0,8.85-3.1,16.17-9.3,21.94-6.2,5.78-14.29,8.66-24.26,8.66-7.79,0-14.57-1.89-20.35-5.65-5.78-3.77-10.73-9.69-14.85-17.76l17.5-10.42c5.26,9.54,11.31,14.31,18.16,14.31,3.57,0,6.58-1.02,9.01-3.08,2.43-2.05,3.65-4.43,3.65-7.12,0-2.45-.92-4.89-2.76-7.34-1.83-2.45-5.88-6.19-12.14-11.23-11.91-9.58-19.61-16.99-23.08-22.19-3.48-5.21-5.21-10.41-5.21-15.59,0-7.48,2.89-13.9,8.67-19.26,5.78-5.35,12.91-8.03,21.4-8.03,5.46,0,10.66,1.25,15.59,3.74,4.94,2.5,10.28,7.04,16.04,13.65h0Z" fill="#231f20"/>
        <path d="M811.54,137.68h21.4l27.51,76.68,27.91-76.68h21.37l-39.4,107.94h-20.07l-38.73-107.94h.01Z" fill="#231f20"/>
        <path d="M935.03,137.68h22.08c11.94,0,20.56,1.09,25.84,3.26,5.28,2.18,9.44,5.7,12.49,10.57s4.57,10.7,4.57,17.5c0,7.53-2,13.8-5.99,18.79-3.99,4.99-9.4,8.46-16.24,10.42-4.01,1.13-11.32,1.69-21.93,1.69v45.71h-20.82v-107.94h0ZM955.84,179.87h6.62c5.2,0,8.82-.37,10.85-1.1,2.03-.74,3.63-1.95,4.79-3.65,1.17-1.69,1.75-3.74,1.75-6.15,0-4.17-1.63-7.22-4.91-9.13-2.38-1.42-6.79-2.13-13.23-2.13h-5.87v22.16Z" fill="#231f20"/>
      </g>
      <polygon points="341.82 127.14 361.99 117.73 361.95 146.69 341.82 127.14" fill="#00abe8"/>
    </g>
  </g>
</svg>